<svg width="76" height="123" viewBox="0 0 76 123" fill="none" xmlns="http://www.w3.org/2000/svg">
<path d="M68.9504 74.0864C68.0005 73.7896 68.0005 73.7696 68.0994 73.077C68.1783 72.7013 68.2578 72.345 68.2973 72.3055C68.3173 72.2661 68.9304 72.4245 69.6229 72.6418C71.1864 73.1165 72.2152 73.0176 72.7888 72.2855C73.0067 72.0087 73.1846 71.593 73.1846 71.3951C73.1846 70.8015 72.1952 70.01 70.8496 69.4953C68.5936 68.6444 67.6837 67.1803 68.3562 65.5179C68.9498 64.0138 70.7701 63.2818 72.7888 63.6976C74.3123 64.0144 74.4313 64.1133 74.2729 64.9643L74.1345 65.6568L73.343 65.38C72.0763 64.9448 70.8891 65.0237 70.3155 65.5979C69.3656 66.5278 69.8208 67.1808 72.2547 68.3486C73.6203 69.0017 74.1739 69.3774 74.4513 69.8721C75.2428 71.2178 74.7481 73.0976 73.4025 73.889C72.512 74.4037 70.256 74.5027 68.9504 74.0869V74.0864Z" fill="#ECECEC"/>
<path d="M2.34391 74.0864C2.34391 73.9675 4.83729 67.1604 5.72771 64.8654L6.16292 63.7176H7.09281C7.94376 63.7176 8.06217 63.7771 8.1611 64.2123C8.24004 64.4891 9.09099 66.7846 10.0609 69.3375C11.0502 71.8704 11.8417 74.0275 11.8417 74.0864C11.8417 74.1654 11.426 74.2054 10.9313 74.1654L10.0209 74.1059L9.48673 72.7208L8.97205 71.3357L7.38909 71.2762C5.09358 71.1973 5.09358 71.1973 4.53943 72.8197L4.06475 74.2048H3.19434C2.73913 74.2048 2.34338 74.1454 2.34338 74.0859L2.34391 74.0864ZM7.72642 67.774L6.9944 65.7158L6.36132 67.635C6.00505 68.6839 5.70824 69.6138 5.70824 69.6932C5.70824 69.7722 6.32185 69.8516 7.07387 69.8516H8.45896L7.72695 67.774H7.72642Z" fill="#ECECEC"/>
<path d="M16.6106 73.4734C16.5117 73.0576 16.1554 71.653 15.8191 70.3469C15.5023 69.0407 15.0077 67.1214 14.7308 66.0926C14.454 65.0638 14.2162 64.0939 14.2162 63.9555C14.2162 63.7776 14.4735 63.7181 15.0471 63.7576L15.8781 63.8171L16.828 67.5767C17.3226 69.6543 17.7779 71.4752 17.8173 71.633C17.8568 71.7914 18.1341 70.9405 18.4309 69.7532C18.7277 68.546 19.2224 66.7257 19.5192 65.6969L20.0534 63.8171H20.9438H21.8342L22.9225 67.854C23.9319 71.6536 24.0108 71.8514 24.1692 71.1189C24.3871 70.0901 25.6927 64.5096 25.8316 64.0744C25.8911 63.7976 26.1284 63.7181 26.801 63.7181C27.5725 63.7181 27.6914 63.7776 27.5925 64.0744C27.4935 64.4107 26.6626 67.6167 25.5343 71.9304L24.9607 74.107L23.9713 74.1664L22.982 74.2259L22.0321 70.5058C21.5174 68.4676 21.0427 66.6868 20.9638 66.5484C20.8849 66.4099 20.4491 67.795 19.9744 69.6154C19.4998 71.4357 19.0246 73.2171 18.9256 73.5728C18.7477 74.1864 18.7077 74.2059 17.7779 74.2059C16.828 74.2059 16.8085 74.1859 16.6101 73.4739L16.6106 73.4734Z" fill="#ECECEC"/>
<path d="M29.9482 73.869C30.0272 73.6712 30.9176 71.3362 31.9269 68.6649L33.7672 63.817H34.6971H35.627L37.4673 68.6649C38.4767 71.3362 39.3671 73.6712 39.446 73.869C39.5844 74.1859 39.5055 74.2253 38.6545 74.1659L37.7046 74.1064L37.21 72.7607L36.7153 71.4151L34.6571 71.4746L32.5989 71.534L32.1637 72.8202L31.7085 74.1064L30.7586 74.1659C29.8882 74.2253 29.8088 74.1859 29.9472 73.869H29.9482ZM35.4886 68.0313C35.1323 67.0219 34.816 66.0526 34.7566 65.8942C34.7171 65.7357 34.3408 66.5667 33.9451 67.7345L33.2326 69.8516H34.6771H36.1217L35.4886 68.0313Z" fill="#ECECEC"/>
<path d="M43.5028 68.9418V63.6782L45.9367 63.7571C47.7176 63.8166 48.5291 63.935 49.0037 64.1923C50.864 65.1617 50.9035 68.0908 49.0632 69.2186L48.4696 69.5749L49.9342 71.8309L51.3987 74.1065L50.5872 74.1659C50.152 74.2054 49.6768 74.1859 49.5584 74.1459C49.42 74.0865 48.7469 73.0971 48.0544 71.9493C46.8077 69.8717 46.7877 69.8517 46.0362 69.8517H45.2842V72.0283V74.2049H44.3938H43.5033V68.9413L43.5028 68.9418ZM48.2717 67.893C48.7069 67.3588 48.7664 66.3294 48.3907 65.8153C48.1139 65.459 46.9661 65.1227 45.9367 65.1027H45.2837V66.8047V68.5066L46.5898 68.4276C47.6781 68.3682 47.9749 68.2692 48.2717 67.8935V67.893Z" fill="#ECECEC"/>
<path d="M55.5739 68.9612V63.6776L58.0078 63.7565C60.6396 63.8554 61.5694 64.1322 62.5588 65.0627C63.6671 66.0915 63.9834 67.0019 63.9834 68.9612C63.9634 70.9204 63.6271 71.8698 62.5588 72.8397C61.431 73.908 60.7974 74.0864 58.1067 74.1653L55.5739 74.2443V68.9606V68.9612ZM59.9865 72.5429C60.9758 72.1866 61.4905 71.7119 61.9257 70.742C62.4404 69.6337 62.4004 68.1697 61.8663 67.0814C61.1737 65.7557 60.5801 65.4189 58.7198 65.32L57.1563 65.2605V69.0401V72.8197H58.2051C58.7593 72.7997 59.5707 72.6813 59.986 72.5429H59.9865Z" fill="#ECECEC"/>
<path d="M31.6296 59.8391C30.6603 59.6412 29.2746 59.1465 29.0768 58.8892C28.8394 58.6124 29.2152 56.1979 29.4725 56.1979C29.5714 56.1979 30.0267 56.3958 30.4819 56.6331C31.6096 57.2267 33.7862 57.3651 34.4987 56.9099C35.1124 56.5142 35.1713 55.5843 34.6177 55.0301C34.3998 54.8123 33.4899 54.2781 32.5795 53.8429C29.5125 52.3783 28.4042 50.3996 29.433 48.1835C30.2045 46.5211 31.7286 45.6901 34.0635 45.6901C35.4486 45.6901 37.19 46.0859 37.8631 46.5806C38.2388 46.8574 38.2388 46.8774 37.7641 47.9062C37.5068 48.4998 37.2695 49.0145 37.23 49.054C37.21 49.0934 36.7353 48.935 36.2012 48.6977C35.0334 48.203 33.4905 48.1435 32.8568 48.5987C32.56 48.7966 32.4216 49.0934 32.4216 49.5681C32.4216 50.3396 32.7779 50.6564 34.895 51.6263C37.5863 52.873 38.4567 53.9813 38.3183 56.0195C38.1404 58.3545 36.458 59.7201 33.5494 59.8585C32.7779 59.898 31.907 59.8785 31.6301 59.8385L31.6296 59.8391Z" fill="#ECECEC"/>
<path d="M52.249 59.7401C49.4588 59.2654 47.6385 57.4251 47.0643 54.4765C46.3718 50.9737 48.1526 47.3331 51.1207 46.1853C52.9015 45.5127 57.2747 45.7106 58.4024 46.5416C58.7387 46.7789 58.7192 46.8778 58.264 47.9861C57.9872 48.6392 57.6904 49.1539 57.6109 49.1339C57.532 49.1139 57.0963 48.956 56.661 48.7976C56.2258 48.6392 55.2954 48.5008 54.5834 48.4808C51.6748 48.4608 49.9924 50.4401 50.3092 53.5071C50.5665 56.0794 52.4463 57.5635 54.8802 57.1088L55.5728 56.9704V55.7037V54.4175H54.405H53.2373L53.1583 53.1908C53.1189 52.4983 53.1189 51.8846 53.1583 51.8057C53.1978 51.7068 54.4645 51.6473 55.988 51.6473H58.7387V55.2885V58.9296L57.8088 59.2465C56.7405 59.5827 54.5439 59.959 53.7919 59.939C53.5151 59.919 52.8226 59.8401 52.2484 59.7411L52.249 59.7401Z" fill="#ECECEC"/>
<path d="M3.72925 52.814V45.8685L7.15252 45.9474C10.7737 46.0263 11.3078 46.1453 12.8713 47.2141C15.7404 49.1928 16.0372 55.1295 13.4054 57.7613C11.9809 59.2059 9.92271 59.7401 5.96529 59.7601H3.72925V52.8145V52.814ZM9.60644 56.6925C11.1894 56.02 11.8225 54.8722 11.8425 52.6951C11.8425 49.9249 10.8926 48.8366 8.20134 48.5592L6.89518 48.4208V52.7151V56.9893H7.88454C8.43868 56.9893 9.21017 56.8509 9.60591 56.6925H9.60644Z" fill="#ECECEC"/>
<path d="M17.9767 52.8341V45.908H22.033H26.0894V47.1942V48.4804H23.616H21.1426V49.8655V51.2506H23.3192H25.4958V52.5368V53.8229H23.3192H21.1426V55.4059V56.9889H23.715H26.2873V58.374V59.7591H22.132H17.9767V52.833V52.8341Z" fill="#ECECEC"/>
<path d="M41.1282 52.8341V45.908H42.5727H44.0373L44.1562 48.4409C44.2157 49.826 44.2552 52.913 44.2352 55.3075L44.1957 59.6607L42.6722 59.7202L41.1287 59.7796V52.8341H41.1282Z" fill="#ECECEC"/>
<path d="M62.1038 52.8341V45.8885L64.1025 45.948L66.1206 46.0075L68.0004 49.2724C69.0292 51.0732 70.2165 53.1709 70.6322 53.9224L71.4037 55.3075V50.6175V45.908H72.9866H74.5696L74.5301 52.7941L74.4707 59.6607H72.492H70.5133L68.2377 55.6832C66.9911 53.4866 65.7644 51.3495 65.507 50.9343L65.0518 50.1628L65.1113 54.9118L65.1708 59.6607L63.6472 59.7202L62.1038 59.7796V52.8341Z" fill="#ECECEC"/>
<path d="M14.8697 38.2899C10.1997 37.439 7.13275 35.2824 5.21298 31.4628C3.80789 28.6726 3.84735 29.3257 3.78841 13.8911L3.70947 0H5.19351H6.67754L6.737 13.5153L6.79647 27.0107L7.33062 28.5342C8.51784 32.0959 10.7934 34.1935 14.4545 35.1634C16.1759 35.6186 19.837 35.5986 21.5384 35.1434C24.8232 34.253 27.2772 32.0764 28.286 29.1478C28.9585 27.1885 29.0575 24.9525 29.0575 12.3281V0H30.5415H32.0255V13.5153C32.0255 26.2592 32.0055 27.1096 31.6298 28.6336C30.3631 33.9762 26.7025 37.3011 21.0232 38.2904C18.985 38.6467 16.8279 38.6467 14.8692 38.2904L14.8697 38.2899Z" fill="#ECECEC"/>
<path d="M38.8723 36.4296C38.3382 35.8954 37.9424 35.3807 37.9819 35.2618C38.1008 34.945 53.7131 19.1936 53.911 19.1936C54.0099 19.1936 54.5441 19.6488 55.0788 20.183L56.0681 21.1723L47.9549 29.2856L39.8417 37.3989L38.8723 36.4296Z" fill="#ECECEC"/>
<path d="M64.9139 29.3651C60.5408 24.9524 56.9591 21.2123 56.9591 21.0934C56.9591 20.856 58.5621 19.1936 58.7794 19.1936C58.9378 19.1936 59.4325 19.6883 68.2777 28.6125L74.9659 35.3407L73.8976 36.3896L72.8488 37.4184L64.9139 29.3646V29.3651Z" fill="#ECECEC"/>
<path d="M49.3013 13.7522C46.709 11.1403 43.0679 7.45971 41.2276 5.57939L37.8833 2.17556L38.9121 1.12673L39.9609 0.0979004L45.937 6.13354C49.2219 9.4579 52.823 13.0991 53.9313 14.2468L55.9495 16.3445L54.9801 17.4128L54.0302 18.5011L49.3008 13.7522H49.3013Z" fill="#ECECEC"/>
<path d="M57.552 17.3144L56.701 16.4439L59.8869 13.1196C61.6283 11.2993 65.2694 7.59862 67.9802 4.88787L72.8875 0L73.9163 1.02883L74.9451 2.07766L66.9903 10.1515C62.6171 14.5842 58.8971 18.2053 58.7387 18.2053C58.5608 18.2053 58.0261 17.8096 57.5514 17.3149L57.552 17.3144Z" fill="#ECECEC"/>
<path d="M3.26932 103.908V97.0465H4.49462L4.57631 98.2174C4.79414 97.8089 5.10274 97.4867 5.50209 97.2507C5.90145 97.0057 6.3598 96.8831 6.87715 96.8831C7.42173 96.8831 7.88916 96.9921 8.27944 97.2099C8.66973 97.4277 8.97378 97.759 9.19161 98.2037C9.40944 98.6394 9.51836 99.1885 9.51836 99.8511V103.908H8.15691V99.9872C8.15691 99.3519 8.01623 98.8709 7.73487 98.5441C7.4535 98.2174 7.04507 98.054 6.50956 98.054C6.15559 98.054 5.83792 98.1402 5.55655 98.3127C5.27519 98.476 5.04828 98.7211 4.87583 99.0478C4.71245 99.3746 4.63077 99.7739 4.63077 100.246V103.908H3.26932ZM14.3912 104.072C13.7468 104.072 13.1659 103.922 12.6485 103.622C12.1402 103.323 11.7363 102.905 11.4368 102.37C11.1464 101.825 11.0012 101.199 11.0012 100.491C11.0012 99.7649 11.1509 99.1341 11.4504 98.5986C11.75 98.054 12.1584 97.6319 12.6757 97.3324C13.1931 97.0329 13.774 96.8831 14.4184 96.8831C15.0719 96.8831 15.6528 97.0329 16.1611 97.3324C16.6693 97.6319 17.0687 98.0494 17.3591 98.5849C17.6586 99.1204 17.8084 99.7513 17.8084 100.477C17.8084 101.203 17.6586 101.834 17.3591 102.37C17.0687 102.905 16.6648 103.323 16.1474 103.622C15.6301 103.922 15.0447 104.072 14.3912 104.072ZM14.3912 102.901C14.7633 102.901 15.0991 102.81 15.3986 102.628C15.7072 102.447 15.9523 102.179 16.1338 101.825C16.3244 101.462 16.4197 101.013 16.4197 100.477C16.4197 99.9419 16.329 99.4971 16.1474 99.1431C15.9659 98.7801 15.7208 98.5078 15.4123 98.3263C15.1127 98.1447 14.7815 98.054 14.4184 98.054C14.0553 98.054 13.7195 98.1447 13.4109 98.3263C13.1023 98.5078 12.8527 98.7801 12.6621 99.1431C12.4806 99.4971 12.3898 99.9419 12.3898 100.477C12.3898 101.013 12.4806 101.462 12.6621 101.825C12.8527 102.179 13.0978 102.447 13.3973 102.628C13.7059 102.81 14.0372 102.901 14.3912 102.901ZM19.4099 103.908V97.0465H20.6352L20.7305 98.0131C20.9483 97.6592 21.2388 97.3823 21.6018 97.1827C21.9649 96.983 22.3733 96.8831 22.8271 96.8831C23.172 96.8831 23.4852 96.9331 23.7665 97.0329C24.0479 97.1237 24.2975 97.2643 24.5153 97.4549C24.7332 97.6455 24.9102 97.8815 25.0463 98.1629C25.2914 97.7635 25.6181 97.4504 26.0265 97.2235C26.4441 96.9966 26.8843 96.8831 27.3471 96.8831C27.9008 96.8831 28.3773 96.9966 28.7767 97.2235C29.176 97.4413 29.4801 97.7726 29.6888 98.2174C29.8976 98.653 30.002 99.1976 30.002 99.8511V103.908H28.6541V99.9872C28.6541 99.3519 28.5225 98.8709 28.2593 98.5441C28.0052 98.2174 27.6285 98.054 27.1293 98.054C26.7935 98.054 26.494 98.1402 26.2308 98.3127C25.9675 98.4851 25.7588 98.7347 25.6045 99.0615C25.4593 99.3882 25.3867 99.7876 25.3867 100.26V103.908H24.0252V99.9872C24.0252 99.3519 23.8936 98.8709 23.6304 98.5441C23.3763 98.2174 22.9996 98.054 22.5004 98.054C22.1827 98.054 21.8923 98.1402 21.6291 98.3127C21.3659 98.4851 21.1571 98.7347 21.0028 99.0615C20.8485 99.3882 20.7714 99.7876 20.7714 100.26V103.908H19.4099ZM31.8566 103.908V97.0465H33.2181V103.908H31.8566ZM32.551 95.7531C32.2877 95.7531 32.0699 95.6715 31.8975 95.5081C31.7341 95.3447 31.6524 95.1359 31.6524 94.8818C31.6524 94.6368 31.7341 94.4371 31.8975 94.2828C32.0699 94.1194 32.2877 94.0377 32.551 94.0377C32.8051 94.0377 33.0184 94.1194 33.1908 94.2828C33.3633 94.4371 33.4495 94.6368 33.4495 94.8818C33.4495 95.1359 33.3633 95.3447 33.1908 95.5081C33.0184 95.6715 32.8051 95.7531 32.551 95.7531ZM35.1649 103.908V97.0465H36.3902L36.4719 98.2174C36.6898 97.8089 36.9983 97.4867 37.3977 97.2507C37.7971 97.0057 38.2554 96.8831 38.7728 96.8831C39.3173 96.8831 39.7848 96.9921 40.1751 97.2099C40.5653 97.4277 40.8694 97.759 41.0872 98.2037C41.3051 98.6394 41.414 99.1885 41.414 99.8511V103.908H40.0525V99.9872C40.0525 99.3519 39.9118 98.8709 39.6305 98.5441C39.3491 98.2174 38.9407 98.054 38.4052 98.054C38.0512 98.054 37.7335 98.1402 37.4522 98.3127C37.1708 98.476 36.9439 98.7211 36.7714 99.0478C36.6081 99.3746 36.5264 99.7739 36.5264 100.246V103.908H35.1649ZM45.4291 104.072C44.8663 104.072 44.3989 103.976 44.0268 103.786C43.6546 103.595 43.3778 103.341 43.1963 103.023C43.0148 102.697 42.924 102.347 42.924 101.975C42.924 101.521 43.042 101.135 43.278 100.818C43.514 100.491 43.8498 100.241 44.2855 100.069C44.7211 99.8965 45.243 99.8102 45.8511 99.8102H47.6346C47.6346 99.4109 47.5756 99.0796 47.4576 98.8164C47.3396 98.5532 47.1626 98.358 46.9267 98.231C46.6998 98.0948 46.4093 98.0268 46.0553 98.0268C45.6469 98.0268 45.2975 98.1266 45.007 98.3263C44.7166 98.5169 44.5351 98.8028 44.4624 99.184H43.101C43.1555 98.7029 43.3188 98.2945 43.5911 97.9587C43.8725 97.6138 44.231 97.3506 44.6667 97.169C45.1023 96.9784 45.5652 96.8831 46.0553 96.8831C46.6998 96.8831 47.2398 96.9966 47.6755 97.2235C48.1111 97.4504 48.4379 97.7726 48.6557 98.1901C48.8826 98.5986 48.9961 99.0887 48.9961 99.6605V103.908H47.8116L47.7027 102.751C47.6028 102.932 47.4849 103.105 47.3487 103.268C47.2126 103.432 47.0492 103.572 46.8586 103.69C46.6771 103.808 46.4638 103.899 46.2187 103.963C45.9827 104.035 45.7195 104.072 45.4291 104.072ZM45.6877 102.969C45.9782 102.969 46.2414 102.91 46.4774 102.792C46.7134 102.674 46.913 102.515 47.0764 102.315C47.2489 102.107 47.3759 101.875 47.4576 101.621C47.5484 101.358 47.5983 101.09 47.6074 100.818V100.777H45.9873C45.597 100.777 45.2793 100.827 45.0342 100.927C44.7983 101.017 44.6258 101.144 44.5169 101.308C44.408 101.471 44.3535 101.662 44.3535 101.88C44.3535 102.107 44.4034 102.302 44.5033 102.465C44.6122 102.619 44.7665 102.742 44.9662 102.833C45.1659 102.923 45.4064 102.969 45.6877 102.969ZM53.4194 103.908C52.9837 103.908 52.607 103.84 52.2894 103.704C51.9717 103.568 51.7266 103.341 51.5542 103.023C51.3817 102.706 51.2955 102.274 51.2955 101.73V98.2037H50.1111V97.0465H51.2955L51.4589 95.3311H52.657V97.0465H54.6038V98.2037H52.657V101.744C52.657 102.134 52.7387 102.402 52.902 102.547C53.0654 102.683 53.3468 102.751 53.7461 102.751H54.5358V103.908H53.4194ZM59.0231 104.072C58.3696 104.072 57.7887 103.922 57.2805 103.622C56.7722 103.323 56.3728 102.905 56.0824 102.37C55.801 101.834 55.6603 101.213 55.6603 100.505C55.6603 99.7785 55.801 99.1477 56.0824 98.6122C56.3728 98.0676 56.7722 97.6455 57.2805 97.346C57.7887 97.0374 58.3787 96.8831 59.0503 96.8831C59.722 96.8831 60.2983 97.0329 60.7794 97.3324C61.2604 97.6319 61.6326 98.0313 61.8958 98.5305C62.159 99.0206 62.2906 99.5652 62.2906 100.164C62.2906 100.255 62.286 100.355 62.277 100.464C62.277 100.564 62.2724 100.677 62.2634 100.804H56.6542V99.8375H60.9291C60.9019 99.2657 60.7113 98.8209 60.3573 98.5033C60.0034 98.1765 59.5632 98.0131 59.0367 98.0131C58.6646 98.0131 58.3242 98.0994 58.0156 98.2718C57.707 98.4352 57.4575 98.6802 57.2668 99.007C57.0853 99.3247 56.9946 99.7286 56.9946 100.219V100.6C56.9946 101.108 57.0853 101.539 57.2668 101.893C57.4575 102.238 57.707 102.501 58.0156 102.683C58.3242 102.855 58.6601 102.942 59.0231 102.942C59.4588 102.942 59.8173 102.846 60.0987 102.656C60.38 102.465 60.5888 102.206 60.7249 101.88H62.0864C61.9684 102.297 61.7687 102.674 61.4873 103.01C61.206 103.336 60.8565 103.595 60.439 103.786C60.0306 103.976 59.5586 104.072 59.0231 104.072ZM66.8528 104.072C66.1993 104.072 65.623 103.917 65.1238 103.609C64.6246 103.291 64.2343 102.864 63.9529 102.329C63.6806 101.784 63.5445 101.167 63.5445 100.477C63.5445 99.7785 63.6806 99.1613 63.9529 98.6258C64.2343 98.0903 64.6246 97.6682 65.1238 97.3596C65.6321 97.042 66.2129 96.8831 66.8664 96.8831C67.4019 96.8831 67.8739 96.9921 68.2823 97.2099C68.6908 97.4186 69.0084 97.7182 69.2353 98.1084V94.1058H70.5968V103.908H69.3715L69.2353 102.846C69.0992 103.055 68.9222 103.255 68.7044 103.445C68.4866 103.627 68.2233 103.777 67.9147 103.895C67.6062 104.013 67.2522 104.072 66.8528 104.072ZM67.0706 102.887C67.4972 102.887 67.8739 102.787 68.2006 102.588C68.5274 102.388 68.777 102.107 68.9494 101.744C69.131 101.38 69.2217 100.958 69.2217 100.477C69.2217 99.9963 69.131 99.5788 68.9494 99.2248C68.777 98.8618 68.5274 98.5804 68.2006 98.3807C67.8739 98.172 67.4972 98.0676 67.0706 98.0676C66.6622 98.0676 66.2946 98.172 65.9679 98.3807C65.6411 98.5804 65.387 98.8618 65.2055 99.2248C65.0239 99.5788 64.9332 99.9963 64.9332 100.477C64.9332 100.958 65.0239 101.38 65.2055 101.744C65.387 102.107 65.6411 102.388 65.9679 102.588C66.2946 102.787 66.6622 102.887 67.0706 102.887Z" fill="#ECECEC"/>
<path d="M3.14679 119.214V118.233C3.78213 117.743 4.38571 117.249 4.95751 116.749C5.52932 116.25 6.0376 115.755 6.48233 115.265C6.93615 114.766 7.29013 114.281 7.54426 113.809C7.7984 113.328 7.92547 112.869 7.92547 112.434C7.92547 112.125 7.87101 111.839 7.76209 111.576C7.65318 111.313 7.48073 111.099 7.24474 110.936C7.00876 110.764 6.68655 110.677 6.27812 110.677C5.88784 110.677 5.56109 110.764 5.29788 110.936C5.04374 111.108 4.8486 111.34 4.71245 111.63C4.58539 111.912 4.52185 112.225 4.52185 112.57H3.20125C3.21032 111.916 3.35101 111.363 3.6233 110.909C3.89559 110.455 4.26318 110.11 4.72607 109.874C5.19804 109.638 5.72446 109.52 6.30535 109.52C6.91346 109.52 7.43989 109.634 7.88462 109.86C8.32936 110.078 8.67426 110.4 8.91932 110.827C9.16438 111.245 9.28692 111.757 9.28692 112.365C9.28692 112.801 9.20069 113.237 9.02824 113.672C8.85579 114.099 8.61981 114.517 8.32029 114.925C8.02985 115.333 7.7031 115.728 7.34005 116.109C6.97699 116.482 6.60033 116.836 6.21005 117.171C5.82884 117.507 5.46125 117.811 5.10727 118.084H9.58643V119.214H3.14679ZM14.8053 119.377C13.9613 119.377 13.2351 119.173 12.627 118.764C12.0189 118.347 11.5515 117.77 11.2247 117.035C10.898 116.291 10.7346 115.429 10.7346 114.448C10.7346 113.468 10.898 112.611 11.2247 111.875C11.5515 111.131 12.0189 110.555 12.627 110.146C13.2351 109.729 13.9613 109.52 14.8053 109.52C15.6494 109.52 16.371 109.729 16.97 110.146C17.5782 110.555 18.0411 111.131 18.3587 111.875C18.6855 112.611 18.8488 113.468 18.8488 114.448C18.8488 115.429 18.6855 116.291 18.3587 117.035C18.0411 117.77 17.5782 118.347 16.97 118.764C16.371 119.173 15.6494 119.377 14.8053 119.377ZM14.8053 118.165C15.3136 118.165 15.7674 118.015 16.1668 117.716C16.5752 117.416 16.8929 116.99 17.1198 116.436C17.3467 115.883 17.4602 115.22 17.4602 114.448C17.4602 113.677 17.3467 113.014 17.1198 112.461C16.8929 111.907 16.5752 111.485 16.1668 111.195C15.7674 110.895 15.3136 110.745 14.8053 110.745C14.288 110.745 13.8251 110.895 13.4167 111.195C13.0082 111.485 12.6906 111.907 12.4637 112.461C12.2368 113.014 12.1233 113.677 12.1233 114.448C12.1233 115.22 12.2368 115.883 12.4637 116.436C12.6906 116.99 13.0082 117.416 13.4167 117.716C13.8251 118.015 14.288 118.165 14.8053 118.165ZM20.1915 119.214V118.233C20.8268 117.743 21.4304 117.249 22.0022 116.749C22.574 116.25 23.0823 115.755 23.527 115.265C23.9808 114.766 24.3348 114.281 24.5889 113.809C24.8431 113.328 24.9701 112.869 24.9701 112.434C24.9701 112.125 24.9157 111.839 24.8068 111.576C24.6979 111.313 24.5254 111.099 24.2894 110.936C24.0534 110.764 23.7312 110.677 23.3228 110.677C22.9325 110.677 22.6058 110.764 22.3425 110.936C22.0884 111.108 21.8933 111.34 21.7571 111.63C21.6301 111.912 21.5665 112.225 21.5665 112.57H20.2459C20.255 111.916 20.3957 111.363 20.668 110.909C20.9403 110.455 21.3079 110.11 21.7707 109.874C22.2427 109.638 22.7691 109.52 23.35 109.52C23.9581 109.52 24.4846 109.634 24.9293 109.86C25.374 110.078 25.7189 110.4 25.964 110.827C26.2091 111.245 26.3316 111.757 26.3316 112.365C26.3316 112.801 26.2454 113.237 26.0729 113.672C25.9005 114.099 25.6645 114.517 25.365 114.925C25.0745 115.333 24.7478 115.728 24.3847 116.109C24.0217 116.482 23.645 116.836 23.2547 117.171C22.8735 117.507 22.5059 117.811 22.1519 118.084H26.6311V119.214H20.1915ZM31.7113 119.377C31.0124 119.377 30.4225 119.25 29.9414 118.996C29.4695 118.733 29.0883 118.383 28.7978 117.947C28.5074 117.503 28.2941 117.013 28.1579 116.477C28.0309 115.932 27.9673 115.374 27.9673 114.802C27.9673 113.75 28.1126 112.828 28.403 112.039C28.7025 111.249 29.1291 110.632 29.6828 110.187C30.2364 109.742 30.9035 109.52 31.6841 109.52C32.3104 109.52 32.8413 109.643 33.277 109.888C33.7217 110.124 34.0666 110.441 34.3117 110.841C34.5658 111.24 34.7201 111.68 34.7746 112.161H33.5084C33.4267 111.689 33.2225 111.326 32.8958 111.072C32.5781 110.809 32.1697 110.677 31.6705 110.677C31.2257 110.677 30.8264 110.818 30.4724 111.099C30.1184 111.372 29.8371 111.789 29.6283 112.352C29.4286 112.915 29.3152 113.627 29.2879 114.489C29.2879 114.498 29.2879 114.512 29.2879 114.53C29.2879 114.548 29.2879 114.566 29.2879 114.585C29.4241 114.312 29.6192 114.063 29.8734 113.836C30.1275 113.609 30.427 113.432 30.7719 113.305C31.1259 113.169 31.5071 113.101 31.9155 113.101C32.451 113.101 32.9502 113.228 33.4131 113.482C33.8851 113.727 34.2663 114.081 34.5567 114.544C34.8472 115.007 34.9924 115.547 34.9924 116.164C34.9924 116.718 34.8563 117.239 34.584 117.73C34.3208 118.22 33.9441 118.619 33.454 118.928C32.9639 119.227 32.383 119.377 31.7113 119.377ZM31.616 118.192C32.0063 118.192 32.3512 118.111 32.6507 117.947C32.9593 117.775 33.1998 117.539 33.3723 117.239C33.5538 116.94 33.6446 116.6 33.6446 116.218C33.6446 115.828 33.5538 115.488 33.3723 115.197C33.1998 114.898 32.9593 114.666 32.6507 114.503C32.3512 114.34 32.0063 114.258 31.616 114.258C31.2257 114.258 30.8763 114.349 30.5677 114.53C30.2591 114.703 30.0141 114.939 29.8325 115.238C29.651 115.529 29.5602 115.86 29.5602 116.232C29.5602 116.613 29.651 116.954 29.8325 117.253C30.0141 117.544 30.2591 117.775 30.5677 117.947C30.8854 118.111 31.2348 118.192 31.616 118.192Z" fill="#ECECEC"/>
<line y1="83.5864" x2="75.8614" y2="83.5864" stroke="#ECECEC" stroke-width="0.665451"/>
</svg>
