<svg width="50" height="50" viewBox="0 0 50 50" fill="none" xmlns="http://www.w3.org/2000/svg">
<rect width="50" height="50" rx="2" fill="#050505"/>
<path d="M13.32 21.4133H14.7067V14.48H18.8667V22.8H17.48V24.1867H16.0933V25.5733H17.48V26.96H18.8667V35.28H14.7067V28.3467H13.32V26.96H10.5467V35.28H6.38667V14.48H10.5467V22.8H13.32V21.4133ZM29.9532 25.5733H28.5666V24.1867H27.1799V22.8H25.7932V35.28H21.6332V14.48H25.7932V15.8667H27.1799V17.2533H28.5666V18.64H29.9532V20.0267H31.3399V21.4133H32.7266V20.0267H34.1132V18.64H35.4999V17.2533H36.8866V15.8667H38.2732V14.48H42.4332V35.28H38.2732V22.8H36.8866V24.1867H35.4999V25.5733H34.1132V26.96H32.7266V28.3467H31.3399V26.96H29.9532V25.5733Z" fill="#ECECEC"/>
</svg>
