<svg width="1200" height="630" viewBox="0 0 1200 630" fill="none" xmlns="http://www.w3.org/2000/svg">
<rect width="1200" height="630" fill="#050505"/>
<path d="M304.667 133.889H311.778V98.3333H333.111V141H326V148.111H318.889V155.222H326V162.333H333.111V205H311.778V169.444H304.667V162.333H290.444V205H269.111V98.3333H290.444V141H304.667V133.889ZM397.076 176.556H368.632V205H347.299V126.778H354.41V119.667H361.521V112.556H368.632V105.444H375.743V98.3333H389.965V105.444H397.076V112.556H404.188V119.667H411.299V126.778H418.41V205H397.076V176.556ZM368.632 155.222H397.076V133.889H389.965V126.778H375.743V133.889H368.632V155.222ZM475.278 176.556H482.389V98.3333H503.722V190.778H496.611V197.889H489.5V205H446.833V197.889H439.722V190.778H432.611V98.3333H453.944V176.556H461.056V183.667H475.278V176.556ZM525.035 190.778H517.924V169.444H539.257V176.556H546.368V183.667H567.701V176.556H574.813V169.444H567.701V162.333H532.146V155.222H525.035V148.111H517.924V112.556H525.035V105.444H532.146V98.3333H581.924V105.444H589.035V112.556H596.146V133.889H574.813V126.778H567.701V119.667H546.368V126.778H539.257V133.889H546.368V141H581.924V148.111H589.035V155.222H596.146V190.778H589.035V197.889H581.924V205H532.146V197.889H525.035V190.778ZM610.361 98.3333H674.361V119.667H653.028V205H631.694V119.667H610.361V98.3333ZM731.215 176.556H738.326V98.3333H759.66V190.778H752.549V197.889H745.438V205H702.771V197.889H695.66V190.778H688.549V98.3333H709.882V176.556H716.993V183.667H731.215V176.556ZM816.528 133.889H823.639V126.778H816.528V119.667H795.194V141H816.528V133.889ZM795.194 183.667H816.528V176.556H823.639V169.444H816.528V162.333H795.194V183.667ZM837.861 155.222H844.972V190.778H837.861V197.889H830.75V205H773.861V98.3333H830.75V105.444H837.861V112.556H844.972V148.111H837.861V155.222ZM908.951 162.333H880.507V205H859.174V98.3333H880.507V141H908.951V98.3333H930.285V205H908.951V162.333Z" fill="#ECECEC"/>
<mask id="path-2-outside-1_44_2" maskUnits="userSpaceOnUse" x="313" y="245" width="573" height="111" fill="black">
<rect fill="white" x="313" y="245" width="573" height="111"/>
<path d="M357.778 304.222H350.667V297.111H343.556V290H336.444V354H315.111V247.333H336.444V254.444H343.556V261.556H350.667V268.667H357.778V275.778H364.889V282.889H372V275.778H379.111V268.667H386.222V261.556H393.333V254.444H400.444V247.333H421.778V354H400.444V290H393.333V297.111H386.222V304.222H379.111V311.333H372V318.444H364.889V311.333H357.778V304.222ZM436.049 261.556H443.16V254.444H450.271V247.333H492.938V254.444H500.049V261.556H507.16V339.778H500.049V346.889H492.938V354H450.271V346.889H443.16V339.778H436.049V261.556ZM478.715 325.556H485.826V275.778H478.715V268.667H464.493V275.778H457.382V325.556H464.493V332.667H478.715V325.556ZM556.917 282.889H564.028V247.333H585.361V290H578.25V297.111H571.139V304.222H578.25V311.333H585.361V354H564.028V318.444H556.917V311.333H542.694V354H521.361V247.333H542.694V290H556.917V282.889ZM649.326 325.556H620.882V354H599.549V275.778H606.66V268.667H613.771V261.556H620.882V254.444H627.993V247.333H642.215V254.444H649.326V261.556H656.438V268.667H663.549V275.778H670.66V354H649.326V325.556ZM620.882 304.222H649.326V282.889H642.215V275.778H627.993V282.889H620.882V304.222ZM691.972 339.778H684.861V318.444H706.194V325.556H713.306V332.667H734.639V325.556H741.75V318.444H734.639V311.333H699.083V304.222H691.972V297.111H684.861V261.556H691.972V254.444H699.083V247.333H748.861V254.444H755.972V261.556H763.083V282.889H741.75V275.778H734.639V268.667H713.306V275.778H706.194V282.889H713.306V290H748.861V297.111H755.972V304.222H763.083V339.778H755.972V346.889H748.861V354H699.083V346.889H691.972V339.778ZM827.076 311.333H798.632V354H777.299V247.333H798.632V290H827.076V247.333H848.41V354H827.076V311.333ZM862.611 247.333H883.944V354H862.611V247.333Z"/>
</mask>
<path d="M357.778 304.222H359.16V302.84H357.778V304.222ZM350.667 304.222H349.284V305.605H350.667V304.222ZM350.667 297.111H352.049V295.729H350.667V297.111ZM343.556 297.111H342.173V298.493H343.556V297.111ZM343.556 290H344.938V288.618H343.556V290ZM336.444 290V288.618H335.062V290H336.444ZM336.444 354V355.382H337.827V354H336.444ZM315.111 354H313.729V355.382H315.111V354ZM315.111 247.333V245.951H313.729V247.333H315.111ZM336.444 247.333H337.827V245.951H336.444V247.333ZM336.444 254.444H335.062V255.827H336.444V254.444ZM343.556 254.444H344.938V253.062H343.556V254.444ZM343.556 261.556H342.173V262.938H343.556V261.556ZM350.667 261.556H352.049V260.173H350.667V261.556ZM350.667 268.667H349.284V270.049H350.667V268.667ZM357.778 268.667H359.16V267.284H357.778V268.667ZM357.778 275.778H356.395V277.16H357.778V275.778ZM364.889 275.778H366.271V274.395H364.889V275.778ZM364.889 282.889H363.507V284.271H364.889V282.889ZM372 282.889V284.271H373.382V282.889H372ZM372 275.778V274.395H370.618V275.778H372ZM379.111 275.778V277.16H380.493V275.778H379.111ZM379.111 268.667V267.284H377.729V268.667H379.111ZM386.222 268.667V270.049H387.605V268.667H386.222ZM386.222 261.556V260.173H384.84V261.556H386.222ZM393.333 261.556V262.938H394.716V261.556H393.333ZM393.333 254.444V253.062H391.951V254.444H393.333ZM400.444 254.444V255.827H401.827V254.444H400.444ZM400.444 247.333V245.951H399.062V247.333H400.444ZM421.778 247.333H423.16V245.951H421.778V247.333ZM421.778 354V355.382H423.16V354H421.778ZM400.444 354H399.062V355.382H400.444V354ZM400.444 290H401.827V288.618H400.444V290ZM393.333 290V288.618H391.951V290H393.333ZM393.333 297.111V298.493H394.716V297.111H393.333ZM386.222 297.111V295.729H384.84V297.111H386.222ZM386.222 304.222V305.605H387.605V304.222H386.222ZM379.111 304.222V302.84H377.729V304.222H379.111ZM379.111 311.333V312.716H380.493V311.333H379.111ZM372 311.333V309.951H370.618V311.333H372ZM372 318.444V319.827H373.382V318.444H372ZM364.889 318.444H363.507V319.827H364.889V318.444ZM364.889 311.333H366.271V309.951H364.889V311.333ZM357.778 311.333H356.395V312.716H357.778V311.333ZM357.778 304.222V302.84H350.667V304.222V305.605H357.778V304.222ZM350.667 304.222H352.049V297.111H350.667H349.284V304.222H350.667ZM350.667 297.111V295.729H343.556V297.111V298.493H350.667V297.111ZM343.556 297.111H344.938V290H343.556H342.173V297.111H343.556ZM343.556 290V288.618H336.444V290V291.382H343.556V290ZM336.444 290H335.062V354H336.444H337.827V290H336.444ZM336.444 354V352.618H315.111V354V355.382H336.444V354ZM315.111 354H316.493V247.333H315.111H313.729V354H315.111ZM315.111 247.333V248.716H336.444V247.333V245.951H315.111V247.333ZM336.444 247.333H335.062V254.444H336.444H337.827V247.333H336.444ZM336.444 254.444V255.827H343.556V254.444V253.062H336.444V254.444ZM343.556 254.444H342.173V261.556H343.556H344.938V254.444H343.556ZM343.556 261.556V262.938H350.667V261.556V260.173H343.556V261.556ZM350.667 261.556H349.284V268.667H350.667H352.049V261.556H350.667ZM350.667 268.667V270.049H357.778V268.667V267.284H350.667V268.667ZM357.778 268.667H356.395V275.778H357.778H359.16V268.667H357.778ZM357.778 275.778V277.16H364.889V275.778V274.395H357.778V275.778ZM364.889 275.778H363.507V282.889H364.889H366.271V275.778H364.889ZM364.889 282.889V284.271H372V282.889V281.507H364.889V282.889ZM372 282.889H373.382V275.778H372H370.618V282.889H372ZM372 275.778V277.16H379.111V275.778V274.395H372V275.778ZM379.111 275.778H380.493V268.667H379.111H377.729V275.778H379.111ZM379.111 268.667V270.049H386.222V268.667V267.284H379.111V268.667ZM386.222 268.667H387.605V261.556H386.222H384.84V268.667H386.222ZM386.222 261.556V262.938H393.333V261.556V260.173H386.222V261.556ZM393.333 261.556H394.716V254.444H393.333H391.951V261.556H393.333ZM393.333 254.444V255.827H400.444V254.444V253.062H393.333V254.444ZM400.444 254.444H401.827V247.333H400.444H399.062V254.444H400.444ZM400.444 247.333V248.716H421.778V247.333V245.951H400.444V247.333ZM421.778 247.333H420.395V354H421.778H423.16V247.333H421.778ZM421.778 354V352.618H400.444V354V355.382H421.778V354ZM400.444 354H401.827V290H400.444H399.062V354H400.444ZM400.444 290V288.618H393.333V290V291.382H400.444V290ZM393.333 290H391.951V297.111H393.333H394.716V290H393.333ZM393.333 297.111V295.729H386.222V297.111V298.493H393.333V297.111ZM386.222 297.111H384.84V304.222H386.222H387.605V297.111H386.222ZM386.222 304.222V302.84H379.111V304.222V305.605H386.222V304.222ZM379.111 304.222H377.729V311.333H379.111H380.493V304.222H379.111ZM379.111 311.333V309.951H372V311.333V312.716H379.111V311.333ZM372 311.333H370.618V318.444H372H373.382V311.333H372ZM372 318.444V317.062H364.889V318.444V319.827H372V318.444ZM364.889 318.444H366.271V311.333H364.889H363.507V318.444H364.889ZM364.889 311.333V309.951H357.778V311.333V312.716H364.889V311.333ZM357.778 311.333H359.16V304.222H357.778H356.395V311.333H357.778ZM436.049 261.556V260.173H434.666V261.556H436.049ZM443.16 261.556V262.938H444.542V261.556H443.16ZM443.16 254.444V253.062H441.777V254.444H443.16ZM450.271 254.444V255.827H451.653V254.444H450.271ZM450.271 247.333V245.951H448.888V247.333H450.271ZM492.938 247.333H494.32V245.951H492.938V247.333ZM492.938 254.444H491.555V255.827H492.938V254.444ZM500.049 254.444H501.431V253.062H500.049V254.444ZM500.049 261.556H498.666V262.938H500.049V261.556ZM507.16 261.556H508.542V260.173H507.16V261.556ZM507.16 339.778V341.16H508.542V339.778H507.16ZM500.049 339.778V338.395H498.666V339.778H500.049ZM500.049 346.889V348.271H501.431V346.889H500.049ZM492.938 346.889V345.507H491.555V346.889H492.938ZM492.938 354V355.382H494.32V354H492.938ZM450.271 354H448.888V355.382H450.271V354ZM450.271 346.889H451.653V345.507H450.271V346.889ZM443.16 346.889H441.777V348.271H443.16V346.889ZM443.16 339.778H444.542V338.395H443.16V339.778ZM436.049 339.778H434.666V341.16H436.049V339.778ZM478.715 325.556V324.173H477.333V325.556H478.715ZM485.826 325.556V326.938H487.209V325.556H485.826ZM485.826 275.778H487.209V274.395H485.826V275.778ZM478.715 275.778H477.333V277.16H478.715V275.778ZM478.715 268.667H480.098V267.284H478.715V268.667ZM464.493 268.667V267.284H463.111V268.667H464.493ZM464.493 275.778V277.16H465.875V275.778H464.493ZM457.382 275.778V274.395H456V275.778H457.382ZM457.382 325.556H456V326.938H457.382V325.556ZM464.493 325.556H465.875V324.173H464.493V325.556ZM464.493 332.667H463.111V334.049H464.493V332.667ZM478.715 332.667V334.049H480.098V332.667H478.715ZM436.049 261.556V262.938H443.16V261.556V260.173H436.049V261.556ZM443.16 261.556H444.542V254.444H443.16H441.777V261.556H443.16ZM443.16 254.444V255.827H450.271V254.444V253.062H443.16V254.444ZM450.271 254.444H451.653V247.333H450.271H448.888V254.444H450.271ZM450.271 247.333V248.716H492.938V247.333V245.951H450.271V247.333ZM492.938 247.333H491.555V254.444H492.938H494.32V247.333H492.938ZM492.938 254.444V255.827H500.049V254.444V253.062H492.938V254.444ZM500.049 254.444H498.666V261.556H500.049H501.431V254.444H500.049ZM500.049 261.556V262.938H507.16V261.556V260.173H500.049V261.556ZM507.16 261.556H505.777V339.778H507.16H508.542V261.556H507.16ZM507.16 339.778V338.395H500.049V339.778V341.16H507.16V339.778ZM500.049 339.778H498.666V346.889H500.049H501.431V339.778H500.049ZM500.049 346.889V345.507H492.938V346.889V348.271H500.049V346.889ZM492.938 346.889H491.555V354H492.938H494.32V346.889H492.938ZM492.938 354V352.618H450.271V354V355.382H492.938V354ZM450.271 354H451.653V346.889H450.271H448.888V354H450.271ZM450.271 346.889V345.507H443.16V346.889V348.271H450.271V346.889ZM443.16 346.889H444.542V339.778H443.16H441.777V346.889H443.16ZM443.16 339.778V338.395H436.049V339.778V341.16H443.16V339.778ZM436.049 339.778H437.431V261.556H436.049H434.666V339.778H436.049ZM478.715 325.556V326.938H485.826V325.556V324.173H478.715V325.556ZM485.826 325.556H487.209V275.778H485.826H484.444V325.556H485.826ZM485.826 275.778V274.395H478.715V275.778V277.16H485.826V275.778ZM478.715 275.778H480.098V268.667H478.715H477.333V275.778H478.715ZM478.715 268.667V267.284H464.493V268.667V270.049H478.715V268.667ZM464.493 268.667H463.111V275.778H464.493H465.875V268.667H464.493ZM464.493 275.778V274.395H457.382V275.778V277.16H464.493V275.778ZM457.382 275.778H456V325.556H457.382H458.764V275.778H457.382ZM457.382 325.556V326.938H464.493V325.556V324.173H457.382V325.556ZM464.493 325.556H463.111V332.667H464.493H465.875V325.556H464.493ZM464.493 332.667V334.049H478.715V332.667V331.284H464.493V332.667ZM478.715 332.667H480.098V325.556H478.715H477.333V332.667H478.715ZM556.917 282.889V281.507H555.534V282.889H556.917ZM564.028 282.889V284.271H565.41V282.889H564.028ZM564.028 247.333V245.951H562.645V247.333H564.028ZM585.361 247.333H586.743V245.951H585.361V247.333ZM585.361 290V291.382H586.743V290H585.361ZM578.25 290V288.618H576.868V290H578.25ZM578.25 297.111V298.493H579.632V297.111H578.25ZM571.139 297.111V295.729H569.757V297.111H571.139ZM571.139 304.222H569.757V305.605H571.139V304.222ZM578.25 304.222H579.632V302.84H578.25V304.222ZM578.25 311.333H576.868V312.716H578.25V311.333ZM585.361 311.333H586.743V309.951H585.361V311.333ZM585.361 354V355.382H586.743V354H585.361ZM564.028 354H562.645V355.382H564.028V354ZM564.028 318.444H565.41V317.062H564.028V318.444ZM556.917 318.444H555.534V319.827H556.917V318.444ZM556.917 311.333H558.299V309.951H556.917V311.333ZM542.694 311.333V309.951H541.312V311.333H542.694ZM542.694 354V355.382H544.077V354H542.694ZM521.361 354H519.979V355.382H521.361V354ZM521.361 247.333V245.951H519.979V247.333H521.361ZM542.694 247.333H544.077V245.951H542.694V247.333ZM542.694 290H541.312V291.382H542.694V290ZM556.917 290V291.382H558.299V290H556.917ZM556.917 282.889V284.271H564.028V282.889V281.507H556.917V282.889ZM564.028 282.889H565.41V247.333H564.028H562.645V282.889H564.028ZM564.028 247.333V248.716H585.361V247.333V245.951H564.028V247.333ZM585.361 247.333H583.979V290H585.361H586.743V247.333H585.361ZM585.361 290V288.618H578.25V290V291.382H585.361V290ZM578.25 290H576.868V297.111H578.25H579.632V290H578.25ZM578.25 297.111V295.729H571.139V297.111V298.493H578.25V297.111ZM571.139 297.111H569.757V304.222H571.139H572.521V297.111H571.139ZM571.139 304.222V305.605H578.25V304.222V302.84H571.139V304.222ZM578.25 304.222H576.868V311.333H578.25H579.632V304.222H578.25ZM578.25 311.333V312.716H585.361V311.333V309.951H578.25V311.333ZM585.361 311.333H583.979V354H585.361H586.743V311.333H585.361ZM585.361 354V352.618H564.028V354V355.382H585.361V354ZM564.028 354H565.41V318.444H564.028H562.645V354H564.028ZM564.028 318.444V317.062H556.917V318.444V319.827H564.028V318.444ZM556.917 318.444H558.299V311.333H556.917H555.534V318.444H556.917ZM556.917 311.333V309.951H542.694V311.333V312.716H556.917V311.333ZM542.694 311.333H541.312V354H542.694H544.077V311.333H542.694ZM542.694 354V352.618H521.361V354V355.382H542.694V354ZM521.361 354H522.743V247.333H521.361H519.979V354H521.361ZM521.361 247.333V248.716H542.694V247.333V245.951H521.361V247.333ZM542.694 247.333H541.312V290H542.694H544.077V247.333H542.694ZM542.694 290V291.382H556.917V290V288.618H542.694V290ZM556.917 290H558.299V282.889H556.917H555.534V290H556.917ZM649.326 325.556H650.709V324.173H649.326V325.556ZM620.882 325.556V324.173H619.5V325.556H620.882ZM620.882 354V355.382H622.264V354H620.882ZM599.549 354H598.166V355.382H599.549V354ZM599.549 275.778V274.395H598.166V275.778H599.549ZM606.66 275.778V277.16H608.042V275.778H606.66ZM606.66 268.667V267.284H605.277V268.667H606.66ZM613.771 268.667V270.049H615.153V268.667H613.771ZM613.771 261.556V260.173H612.388V261.556H613.771ZM620.882 261.556V262.938H622.264V261.556H620.882ZM620.882 254.444V253.062H619.5V254.444H620.882ZM627.993 254.444V255.827H629.375V254.444H627.993ZM627.993 247.333V245.951H626.611V247.333H627.993ZM642.215 247.333H643.598V245.951H642.215V247.333ZM642.215 254.444H640.833V255.827H642.215V254.444ZM649.326 254.444H650.709V253.062H649.326V254.444ZM649.326 261.556H647.944V262.938H649.326V261.556ZM656.438 261.556H657.82V260.173H656.438V261.556ZM656.438 268.667H655.055V270.049H656.438V268.667ZM663.549 268.667H664.931V267.284H663.549V268.667ZM663.549 275.778H662.166V277.16H663.549V275.778ZM670.66 275.778H672.042V274.395H670.66V275.778ZM670.66 354V355.382H672.042V354H670.66ZM649.326 354H647.944V355.382H649.326V354ZM620.882 304.222H619.5V305.605H620.882V304.222ZM649.326 304.222V305.605H650.709V304.222H649.326ZM649.326 282.889H650.709V281.507H649.326V282.889ZM642.215 282.889H640.833V284.271H642.215V282.889ZM642.215 275.778H643.598V274.395H642.215V275.778ZM627.993 275.778V274.395H626.611V275.778H627.993ZM627.993 282.889V284.271H629.375V282.889H627.993ZM620.882 282.889V281.507H619.5V282.889H620.882ZM649.326 325.556V324.173H620.882V325.556V326.938H649.326V325.556ZM620.882 325.556H619.5V354H620.882H622.264V325.556H620.882ZM620.882 354V352.618H599.549V354V355.382H620.882V354ZM599.549 354H600.931V275.778H599.549H598.166V354H599.549ZM599.549 275.778V277.16H606.66V275.778V274.395H599.549V275.778ZM606.66 275.778H608.042V268.667H606.66H605.277V275.778H606.66ZM606.66 268.667V270.049H613.771V268.667V267.284H606.66V268.667ZM613.771 268.667H615.153V261.556H613.771H612.388V268.667H613.771ZM613.771 261.556V262.938H620.882V261.556V260.173H613.771V261.556ZM620.882 261.556H622.264V254.444H620.882H619.5V261.556H620.882ZM620.882 254.444V255.827H627.993V254.444V253.062H620.882V254.444ZM627.993 254.444H629.375V247.333H627.993H626.611V254.444H627.993ZM627.993 247.333V248.716H642.215V247.333V245.951H627.993V247.333ZM642.215 247.333H640.833V254.444H642.215H643.598V247.333H642.215ZM642.215 254.444V255.827H649.326V254.444V253.062H642.215V254.444ZM649.326 254.444H647.944V261.556H649.326H650.709V254.444H649.326ZM649.326 261.556V262.938H656.438V261.556V260.173H649.326V261.556ZM656.438 261.556H655.055V268.667H656.438H657.82V261.556H656.438ZM656.438 268.667V270.049H663.549V268.667V267.284H656.438V268.667ZM663.549 268.667H662.166V275.778H663.549H664.931V268.667H663.549ZM663.549 275.778V277.16H670.66V275.778V274.395H663.549V275.778ZM670.66 275.778H669.277V354H670.66H672.042V275.778H670.66ZM670.66 354V352.618H649.326V354V355.382H670.66V354ZM649.326 354H650.709V325.556H649.326H647.944V354H649.326ZM620.882 304.222V305.605H649.326V304.222V302.84H620.882V304.222ZM649.326 304.222H650.709V282.889H649.326H647.944V304.222H649.326ZM649.326 282.889V281.507H642.215V282.889V284.271H649.326V282.889ZM642.215 282.889H643.598V275.778H642.215H640.833V282.889H642.215ZM642.215 275.778V274.395H627.993V275.778V277.16H642.215V275.778ZM627.993 275.778H626.611V282.889H627.993H629.375V275.778H627.993ZM627.993 282.889V281.507H620.882V282.889V284.271H627.993V282.889ZM620.882 282.889H619.5V304.222H620.882H622.264V282.889H620.882ZM691.972 339.778H693.355V338.395H691.972V339.778ZM684.861 339.778H683.479V341.16H684.861V339.778ZM684.861 318.444V317.062H683.479V318.444H684.861ZM706.194 318.444H707.577V317.062H706.194V318.444ZM706.194 325.556H704.812V326.938H706.194V325.556ZM713.306 325.556H714.688V324.173H713.306V325.556ZM713.306 332.667H711.923V334.049H713.306V332.667ZM734.639 332.667V334.049H736.021V332.667H734.639ZM734.639 325.556V324.173H733.257V325.556H734.639ZM741.75 325.556V326.938H743.132V325.556H741.75ZM741.75 318.444H743.132V317.062H741.75V318.444ZM734.639 318.444H733.257V319.827H734.639V318.444ZM734.639 311.333H736.021V309.951H734.639V311.333ZM699.083 311.333H697.701V312.716H699.083V311.333ZM699.083 304.222H700.466V302.84H699.083V304.222ZM691.972 304.222H690.59V305.605H691.972V304.222ZM691.972 297.111H693.355V295.729H691.972V297.111ZM684.861 297.111H683.479V298.493H684.861V297.111ZM684.861 261.556V260.173H683.479V261.556H684.861ZM691.972 261.556V262.938H693.355V261.556H691.972ZM691.972 254.444V253.062H690.59V254.444H691.972ZM699.083 254.444V255.827H700.466V254.444H699.083ZM699.083 247.333V245.951H697.701V247.333H699.083ZM748.861 247.333H750.243V245.951H748.861V247.333ZM748.861 254.444H747.479V255.827H748.861V254.444ZM755.972 254.444H757.355V253.062H755.972V254.444ZM755.972 261.556H754.59V262.938H755.972V261.556ZM763.083 261.556H764.466V260.173H763.083V261.556ZM763.083 282.889V284.271H764.466V282.889H763.083ZM741.75 282.889H740.368V284.271H741.75V282.889ZM741.75 275.778H743.132V274.395H741.75V275.778ZM734.639 275.778H733.257V277.16H734.639V275.778ZM734.639 268.667H736.021V267.284H734.639V268.667ZM713.306 268.667V267.284H711.923V268.667H713.306ZM713.306 275.778V277.16H714.688V275.778H713.306ZM706.194 275.778V274.395H704.812V275.778H706.194ZM706.194 282.889H704.812V284.271H706.194V282.889ZM713.306 282.889H714.688V281.507H713.306V282.889ZM713.306 290H711.923V291.382H713.306V290ZM748.861 290H750.243V288.618H748.861V290ZM748.861 297.111H747.479V298.493H748.861V297.111ZM755.972 297.111H757.355V295.729H755.972V297.111ZM755.972 304.222H754.59V305.605H755.972V304.222ZM763.083 304.222H764.466V302.84H763.083V304.222ZM763.083 339.778V341.16H764.466V339.778H763.083ZM755.972 339.778V338.395H754.59V339.778H755.972ZM755.972 346.889V348.271H757.355V346.889H755.972ZM748.861 346.889V345.507H747.479V346.889H748.861ZM748.861 354V355.382H750.243V354H748.861ZM699.083 354H697.701V355.382H699.083V354ZM699.083 346.889H700.466V345.507H699.083V346.889ZM691.972 346.889H690.59V348.271H691.972V346.889ZM691.972 339.778V338.395H684.861V339.778V341.16H691.972V339.778ZM684.861 339.778H686.243V318.444H684.861H683.479V339.778H684.861ZM684.861 318.444V319.827H706.194V318.444V317.062H684.861V318.444ZM706.194 318.444H704.812V325.556H706.194H707.577V318.444H706.194ZM706.194 325.556V326.938H713.306V325.556V324.173H706.194V325.556ZM713.306 325.556H711.923V332.667H713.306H714.688V325.556H713.306ZM713.306 332.667V334.049H734.639V332.667V331.284H713.306V332.667ZM734.639 332.667H736.021V325.556H734.639H733.257V332.667H734.639ZM734.639 325.556V326.938H741.75V325.556V324.173H734.639V325.556ZM741.75 325.556H743.132V318.444H741.75H740.368V325.556H741.75ZM741.75 318.444V317.062H734.639V318.444V319.827H741.75V318.444ZM734.639 318.444H736.021V311.333H734.639H733.257V318.444H734.639ZM734.639 311.333V309.951H699.083V311.333V312.716H734.639V311.333ZM699.083 311.333H700.466V304.222H699.083H697.701V311.333H699.083ZM699.083 304.222V302.84H691.972V304.222V305.605H699.083V304.222ZM691.972 304.222H693.355V297.111H691.972H690.59V304.222H691.972ZM691.972 297.111V295.729H684.861V297.111V298.493H691.972V297.111ZM684.861 297.111H686.243V261.556H684.861H683.479V297.111H684.861ZM684.861 261.556V262.938H691.972V261.556V260.173H684.861V261.556ZM691.972 261.556H693.355V254.444H691.972H690.59V261.556H691.972ZM691.972 254.444V255.827H699.083V254.444V253.062H691.972V254.444ZM699.083 254.444H700.466V247.333H699.083H697.701V254.444H699.083ZM699.083 247.333V248.716H748.861V247.333V245.951H699.083V247.333ZM748.861 247.333H747.479V254.444H748.861H750.243V247.333H748.861ZM748.861 254.444V255.827H755.972V254.444V253.062H748.861V254.444ZM755.972 254.444H754.59V261.556H755.972H757.355V254.444H755.972ZM755.972 261.556V262.938H763.083V261.556V260.173H755.972V261.556ZM763.083 261.556H761.701V282.889H763.083H764.466V261.556H763.083ZM763.083 282.889V281.507H741.75V282.889V284.271H763.083V282.889ZM741.75 282.889H743.132V275.778H741.75H740.368V282.889H741.75ZM741.75 275.778V274.395H734.639V275.778V277.16H741.75V275.778ZM734.639 275.778H736.021V268.667H734.639H733.257V275.778H734.639ZM734.639 268.667V267.284H713.306V268.667V270.049H734.639V268.667ZM713.306 268.667H711.923V275.778H713.306H714.688V268.667H713.306ZM713.306 275.778V274.395H706.194V275.778V277.16H713.306V275.778ZM706.194 275.778H704.812V282.889H706.194H707.577V275.778H706.194ZM706.194 282.889V284.271H713.306V282.889V281.507H706.194V282.889ZM713.306 282.889H711.923V290H713.306H714.688V282.889H713.306ZM713.306 290V291.382H748.861V290V288.618H713.306V290ZM748.861 290H747.479V297.111H748.861H750.243V290H748.861ZM748.861 297.111V298.493H755.972V297.111V295.729H748.861V297.111ZM755.972 297.111H754.59V304.222H755.972H757.355V297.111H755.972ZM755.972 304.222V305.605H763.083V304.222V302.84H755.972V304.222ZM763.083 304.222H761.701V339.778H763.083H764.466V304.222H763.083ZM763.083 339.778V338.395H755.972V339.778V341.16H763.083V339.778ZM755.972 339.778H754.59V346.889H755.972H757.355V339.778H755.972ZM755.972 346.889V345.507H748.861V346.889V348.271H755.972V346.889ZM748.861 346.889H747.479V354H748.861H750.243V346.889H748.861ZM748.861 354V352.618H699.083V354V355.382H748.861V354ZM699.083 354H700.466V346.889H699.083H697.701V354H699.083ZM699.083 346.889V345.507H691.972V346.889V348.271H699.083V346.889ZM691.972 346.889H693.355V339.778H691.972H690.59V346.889H691.972ZM827.076 311.333H828.459V309.951H827.076V311.333ZM798.632 311.333V309.951H797.25V311.333H798.632ZM798.632 354V355.382H800.014V354H798.632ZM777.299 354H775.916V355.382H777.299V354ZM777.299 247.333V245.951H775.916V247.333H777.299ZM798.632 247.333H800.014V245.951H798.632V247.333ZM798.632 290H797.25V291.382H798.632V290ZM827.076 290V291.382H828.459V290H827.076ZM827.076 247.333V245.951H825.694V247.333H827.076ZM848.41 247.333H849.792V245.951H848.41V247.333ZM848.41 354V355.382H849.792V354H848.41ZM827.076 354H825.694V355.382H827.076V354ZM827.076 311.333V309.951H798.632V311.333V312.716H827.076V311.333ZM798.632 311.333H797.25V354H798.632H800.014V311.333H798.632ZM798.632 354V352.618H777.299V354V355.382H798.632V354ZM777.299 354H778.681V247.333H777.299H775.916V354H777.299ZM777.299 247.333V248.716H798.632V247.333V245.951H777.299V247.333ZM798.632 247.333H797.25V290H798.632H800.014V247.333H798.632ZM798.632 290V291.382H827.076V290V288.618H798.632V290ZM827.076 290H828.459V247.333H827.076H825.694V290H827.076ZM827.076 247.333V248.716H848.41V247.333V245.951H827.076V247.333ZM848.41 247.333H847.027V354H848.41H849.792V247.333H848.41ZM848.41 354V352.618H827.076V354V355.382H848.41V354ZM827.076 354H828.459V311.333H827.076H825.694V354H827.076ZM862.611 247.333V245.951H861.229V247.333H862.611ZM883.944 247.333H885.327V245.951H883.944V247.333ZM883.944 354V355.382H885.327V354H883.944ZM862.611 354H861.229V355.382H862.611V354ZM862.611 247.333V248.716H883.944V247.333V245.951H862.611V247.333ZM883.944 247.333H882.562V354H883.944H885.327V247.333H883.944ZM883.944 354V352.618H862.611V354V355.382H883.944V354ZM862.611 354H863.993V247.333H862.611H861.229V354H862.611Z" fill="#ECECEC" mask="url(#path-2-outside-1_44_2)"/>
<path d="M456.784 435V411.727H466.83C468.557 411.727 470.068 412.068 471.364 412.75C472.659 413.432 473.667 414.39 474.387 415.625C475.106 416.86 475.466 418.303 475.466 419.955C475.466 421.621 475.095 423.064 474.353 424.284C473.618 425.504 472.584 426.443 471.25 427.102C469.925 427.761 468.375 428.091 466.603 428.091H460.603V423.182H465.33C466.072 423.182 466.705 423.053 467.228 422.795C467.758 422.53 468.163 422.155 468.443 421.67C468.731 421.186 468.875 420.614 468.875 419.955C468.875 419.288 468.731 418.72 468.443 418.25C468.163 417.773 467.758 417.409 467.228 417.159C466.705 416.902 466.072 416.773 465.33 416.773H463.103V435H456.784ZM513.13 423.364C513.13 425.955 512.626 428.14 511.618 429.92C510.611 431.693 509.251 433.038 507.539 433.955C505.827 434.864 503.918 435.318 501.812 435.318C499.69 435.318 497.774 434.86 496.062 433.943C494.357 433.019 493.001 431.67 491.993 429.898C490.993 428.117 490.493 425.939 490.493 423.364C490.493 420.773 490.993 418.591 491.993 416.818C493.001 415.038 494.357 413.693 496.062 412.784C497.774 411.867 499.69 411.409 501.812 411.409C503.918 411.409 505.827 411.867 507.539 412.784C509.251 413.693 510.611 415.038 511.618 416.818C512.626 418.591 513.13 420.773 513.13 423.364ZM506.63 423.364C506.63 421.97 506.444 420.795 506.073 419.841C505.709 418.879 505.168 418.152 504.448 417.659C503.736 417.159 502.857 416.909 501.812 416.909C500.766 416.909 499.884 417.159 499.164 417.659C498.452 418.152 497.91 418.879 497.539 419.841C497.175 420.795 496.993 421.97 496.993 423.364C496.993 424.758 497.175 425.936 497.539 426.898C497.91 427.852 498.452 428.58 499.164 429.08C499.884 429.572 500.766 429.818 501.812 429.818C502.857 429.818 503.736 429.572 504.448 429.08C505.168 428.58 505.709 427.852 506.073 426.898C506.444 425.936 506.63 424.758 506.63 423.364ZM528.853 435V411.727H538.899C540.626 411.727 542.137 412.042 543.433 412.67C544.728 413.299 545.736 414.205 546.455 415.386C547.175 416.568 547.535 417.985 547.535 419.636C547.535 421.303 547.164 422.708 546.421 423.852C545.686 424.996 544.652 425.86 543.319 426.443C541.993 427.027 540.444 427.318 538.671 427.318H532.671V422.409H537.399C538.141 422.409 538.774 422.318 539.296 422.136C539.827 421.947 540.232 421.648 540.512 421.239C540.8 420.83 540.944 420.295 540.944 419.636C540.944 418.97 540.8 418.428 540.512 418.011C540.232 417.587 539.827 417.277 539.296 417.08C538.774 416.875 538.141 416.773 537.399 416.773H535.171V435H528.853ZM542.489 424.318L548.308 435H541.444L535.762 424.318H542.489ZM562.392 416.818V411.727H582.619V416.818H575.619V435H569.392V416.818H562.392ZM597.797 435V411.727H614.161V416.818H604.115V420.818H613.161V425.909H604.115V435H597.797ZM651.83 423.364C651.83 425.955 651.326 428.14 650.318 429.92C649.311 431.693 647.951 433.038 646.239 433.955C644.527 434.864 642.618 435.318 640.512 435.318C638.39 435.318 636.474 434.86 634.762 433.943C633.057 433.019 631.701 431.67 630.693 429.898C629.693 428.117 629.193 425.939 629.193 423.364C629.193 420.773 629.693 418.591 630.693 416.818C631.701 415.038 633.057 413.693 634.762 412.784C636.474 411.867 638.39 411.409 640.512 411.409C642.618 411.409 644.527 411.867 646.239 412.784C647.951 413.693 649.311 415.038 650.318 416.818C651.326 418.591 651.83 420.773 651.83 423.364ZM645.33 423.364C645.33 421.97 645.144 420.795 644.773 419.841C644.409 418.879 643.868 418.152 643.148 417.659C642.436 417.159 641.557 416.909 640.512 416.909C639.466 416.909 638.584 417.159 637.864 417.659C637.152 418.152 636.61 418.879 636.239 419.841C635.875 420.795 635.693 421.97 635.693 423.364C635.693 424.758 635.875 425.936 636.239 426.898C636.61 427.852 637.152 428.58 637.864 429.08C638.584 429.572 639.466 429.818 640.512 429.818C641.557 429.818 642.436 429.572 643.148 429.08C643.868 428.58 644.409 427.852 644.773 426.898C645.144 425.936 645.33 424.758 645.33 423.364ZM667.553 435V411.727H673.871V429.909H683.28V435H667.553ZM704.953 411.727V435H698.634V411.727H704.953ZM743.292 423.364C743.292 425.955 742.789 428.14 741.781 429.92C740.773 431.693 739.414 433.038 737.701 433.955C735.989 434.864 734.08 435.318 731.974 435.318C729.853 435.318 727.936 434.86 726.224 433.943C724.52 433.019 723.164 431.67 722.156 429.898C721.156 428.117 720.656 425.939 720.656 423.364C720.656 420.773 721.156 418.591 722.156 416.818C723.164 415.038 724.52 413.693 726.224 412.784C727.936 411.867 729.853 411.409 731.974 411.409C734.08 411.409 735.989 411.867 737.701 412.784C739.414 413.693 740.773 415.038 741.781 416.818C742.789 418.591 743.292 420.773 743.292 423.364ZM736.792 423.364C736.792 421.97 736.607 420.795 736.236 419.841C735.872 418.879 735.33 418.152 734.611 417.659C733.898 417.159 733.02 416.909 731.974 416.909C730.929 416.909 730.046 417.159 729.326 417.659C728.614 418.152 728.073 418.879 727.701 419.841C727.338 420.795 727.156 421.97 727.156 423.364C727.156 424.758 727.338 425.936 727.701 426.898C728.073 427.852 728.614 428.58 729.326 429.08C730.046 429.572 730.929 429.818 731.974 429.818C733.02 429.818 733.898 429.572 734.611 429.08C735.33 428.58 735.872 427.852 736.236 426.898C736.607 425.936 736.792 424.758 736.792 423.364Z" fill="#ECECEC"/>
<path d="M324.083 549.541L319.402 533.668H324.207L326.377 543.434H326.501L329.074 533.668H332.857L335.43 543.465H335.554L337.724 533.668H342.529L337.848 549.541H333.725L331.028 540.675H330.904L328.206 549.541H324.083ZM356.685 549.541L352.003 533.668H356.809L358.979 543.434H359.103L361.676 533.668H365.458L368.031 543.465H368.155L370.325 533.668H375.131L370.449 549.541H366.326L363.629 540.675H363.505L360.808 549.541H356.685ZM389.286 549.541L384.605 533.668H389.41L391.58 543.434H391.704L394.277 533.668H398.06L400.633 543.465H400.757L402.927 533.668H407.732L403.051 549.541H398.928L396.23 540.675H396.106L393.409 549.541H389.286ZM418.134 549.789C417.535 549.789 417.021 549.58 416.592 549.161C416.168 548.738 415.959 548.224 415.964 547.619C415.959 547.03 416.168 546.526 416.592 546.108C417.021 545.689 417.535 545.48 418.134 545.48C418.703 545.48 419.204 545.689 419.638 546.108C420.077 546.526 420.299 547.03 420.304 547.619C420.299 548.022 420.193 548.389 419.987 548.72C419.785 549.045 419.522 549.306 419.196 549.503C418.871 549.694 418.517 549.789 418.134 549.789ZM431.298 549.541V533.668H435.607V540.086H435.824L440.598 533.668H445.621L440.257 540.737L445.745 549.541H440.598L437.033 543.589L435.607 545.449V549.541H431.298ZM459.753 549.541H455.102L460.342 533.668H466.232L471.471 549.541H466.821L463.349 538.04H463.225L459.753 549.541ZM458.885 543.279H467.627V546.503H458.885V543.279ZM491.124 533.668H495.433V543.837C495.433 545.046 495.144 546.092 494.565 546.976C493.991 547.854 493.191 548.534 492.162 549.014C491.134 549.49 489.941 549.727 488.582 549.727C487.212 549.727 486.014 549.49 484.985 549.014C483.957 548.534 483.156 547.854 482.583 546.976C482.014 546.092 481.73 545.046 481.73 543.837V533.668H486.039V543.465C486.039 543.956 486.148 544.395 486.365 544.782C486.582 545.165 486.882 545.465 487.264 545.682C487.652 545.899 488.091 546.007 488.582 546.007C489.078 546.007 489.517 545.899 489.899 545.682C490.282 545.465 490.581 545.165 490.798 544.782C491.015 544.395 491.124 543.956 491.124 543.465V533.668ZM514.768 538.629C514.726 538.112 514.533 537.709 514.186 537.42C513.845 537.13 513.326 536.986 512.629 536.986C512.184 536.986 511.82 537.04 511.536 537.148C511.257 537.252 511.05 537.394 510.916 537.575C510.781 537.755 510.712 537.962 510.706 538.195C510.696 538.386 510.73 538.559 510.807 538.714C510.89 538.864 511.019 539.001 511.195 539.125C511.37 539.244 511.595 539.352 511.869 539.45C512.143 539.548 512.468 539.636 512.846 539.714L514.148 539.993C515.026 540.179 515.778 540.424 516.403 540.729C517.028 541.034 517.54 541.393 517.938 541.806C518.335 542.215 518.627 542.674 518.813 543.186C519.005 543.697 519.103 544.255 519.108 544.86C519.103 545.904 518.842 546.787 518.325 547.511C517.808 548.234 517.07 548.784 516.108 549.161C515.153 549.539 514.003 549.727 512.66 549.727C511.28 549.727 510.076 549.523 509.048 549.115C508.025 548.707 507.229 548.079 506.661 547.232C506.097 546.379 505.813 545.289 505.808 543.961H509.9C509.926 544.447 510.048 544.855 510.265 545.186C510.482 545.516 510.786 545.767 511.179 545.937C511.577 546.108 512.05 546.193 512.598 546.193C513.057 546.193 513.442 546.136 513.752 546.023C514.062 545.909 514.297 545.751 514.458 545.55C514.618 545.348 514.7 545.118 514.706 544.86C514.7 544.617 514.62 544.405 514.465 544.224C514.316 544.038 514.068 543.873 513.721 543.728C513.375 543.579 512.908 543.439 512.318 543.31L510.737 542.969C509.332 542.664 508.224 542.155 507.412 541.442C506.606 540.724 506.206 539.745 506.211 538.505C506.206 537.497 506.475 536.616 507.017 535.862C507.565 535.102 508.322 534.511 509.288 534.087C510.259 533.663 511.373 533.451 512.629 533.451C513.91 533.451 515.018 533.666 515.953 534.095C516.889 534.523 517.609 535.128 518.116 535.908C518.627 536.683 518.886 537.59 518.891 538.629H514.768ZM529.043 537.141V533.668H542.839V537.141H538.065V549.541H533.817V537.141H529.043ZM562.584 533.668H566.894V543.837C566.894 545.046 566.604 546.092 566.026 546.976C565.452 547.854 564.651 548.534 563.623 549.014C562.595 549.49 561.401 549.727 560.042 549.727C558.673 549.727 557.474 549.49 556.446 549.014C555.418 548.534 554.617 547.854 554.043 546.976C553.475 546.092 553.191 545.046 553.191 543.837V533.668H557.5V543.465C557.5 543.956 557.609 544.395 557.826 544.782C558.043 545.165 558.342 545.465 558.725 545.682C559.112 545.899 559.551 546.007 560.042 546.007C560.538 546.007 560.977 545.899 561.36 545.682C561.742 545.465 562.042 545.165 562.259 544.782C562.476 544.395 562.584 543.956 562.584 543.465V533.668ZM577.672 549.541V533.668H584.554C585.763 533.668 586.779 533.831 587.6 534.157C588.427 534.482 589.049 534.942 589.468 535.536C589.892 536.13 590.103 536.831 590.103 537.637C590.103 538.22 589.974 538.753 589.716 539.233C589.463 539.714 589.106 540.117 588.646 540.442C588.187 540.763 587.649 540.985 587.034 541.109V541.264C587.716 541.29 588.336 541.463 588.894 541.783C589.452 542.098 589.897 542.535 590.227 543.093C590.558 543.646 590.724 544.297 590.724 545.046C590.724 545.914 590.496 546.687 590.041 547.363C589.592 548.04 588.951 548.572 588.119 548.96C587.287 549.347 586.295 549.541 585.143 549.541H577.672ZM581.981 546.1H583.996C584.72 546.1 585.262 545.966 585.624 545.697C585.985 545.423 586.166 545.02 586.166 544.488C586.166 544.116 586.081 543.801 585.91 543.542C585.74 543.284 585.497 543.088 585.182 542.953C584.872 542.819 584.497 542.752 584.058 542.752H581.981V546.1ZM581.981 540.086H583.748C584.125 540.086 584.459 540.026 584.748 539.907C585.037 539.789 585.262 539.618 585.422 539.396C585.588 539.169 585.67 538.892 585.67 538.567C585.67 538.076 585.495 537.701 585.143 537.443C584.792 537.179 584.347 537.048 583.81 537.048H581.981V540.086ZM600.98 549.541V533.668H605.29V539.869H610.994V533.668H615.303V549.541H610.994V543.341H605.29V549.541H600.98ZM626.079 533.668H631.443L635.132 542.659H635.318L639.007 533.668H644.37V549.541H640.154V540.365H640.03L636.496 549.417H633.954L630.42 540.303H630.296V549.541H626.079V533.668ZM670.52 541.605C670.52 543.372 670.176 544.863 669.489 546.077C668.802 547.286 667.874 548.203 666.706 548.828C665.539 549.448 664.237 549.758 662.8 549.758C661.354 549.758 660.046 549.446 658.879 548.82C657.716 548.19 656.791 547.27 656.104 546.061C655.422 544.847 655.081 543.362 655.081 541.605C655.081 539.838 655.422 538.35 656.104 537.141C656.791 535.926 657.716 535.009 658.879 534.389C660.046 533.764 661.354 533.451 662.8 533.451C664.237 533.451 665.539 533.764 666.706 534.389C667.874 535.009 668.802 535.926 669.489 537.141C670.176 538.35 670.52 539.838 670.52 541.605ZM666.086 541.605C666.086 540.654 665.96 539.853 665.707 539.202C665.459 538.546 665.089 538.05 664.598 537.714C664.113 537.373 663.513 537.203 662.8 537.203C662.087 537.203 661.485 537.373 660.994 537.714C660.509 538.05 660.139 538.546 659.886 539.202C659.638 539.853 659.514 540.654 659.514 541.605C659.514 542.556 659.638 543.359 659.886 544.015C660.139 544.666 660.509 545.162 660.994 545.503C661.485 545.839 662.087 546.007 662.8 546.007C663.513 546.007 664.113 545.839 664.598 545.503C665.089 545.162 665.459 544.666 665.707 544.015C665.96 543.359 666.086 542.556 666.086 541.605ZM681.244 549.541V533.668H685.553V540.086H685.77L690.544 533.668H695.566L690.203 540.737L695.69 549.541H690.544L686.979 543.589L685.553 545.449V549.541H681.244ZM709.699 549.541H705.048L710.288 533.668H716.178L721.417 549.541H716.767L713.295 538.04H713.171L709.699 549.541ZM708.831 543.279H717.573V546.503H708.831V543.279ZM739.615 538.629C739.573 538.112 739.379 537.709 739.033 537.42C738.692 537.13 738.173 536.986 737.475 536.986C737.031 536.986 736.667 537.04 736.383 537.148C736.104 537.252 735.897 537.394 735.763 537.575C735.628 537.755 735.558 537.962 735.553 538.195C735.543 538.386 735.577 538.559 735.654 538.714C735.737 538.864 735.866 539.001 736.042 539.125C736.217 539.244 736.442 539.352 736.716 539.45C736.99 539.548 737.315 539.636 737.692 539.714L738.994 539.993C739.873 540.179 740.625 540.424 741.25 540.729C741.875 541.034 742.387 541.393 742.784 541.806C743.182 542.215 743.474 542.674 743.66 543.186C743.851 543.697 743.95 544.255 743.955 544.86C743.95 545.904 743.689 546.787 743.172 547.511C742.655 548.234 741.916 548.784 740.955 549.161C739.999 549.539 738.85 549.727 737.506 549.727C736.127 549.727 734.923 549.523 733.895 549.115C732.872 548.707 732.076 548.079 731.508 547.232C730.944 546.379 730.66 545.289 730.655 543.961H734.747C734.773 544.447 734.895 544.855 735.112 545.186C735.329 545.516 735.633 545.767 736.026 545.937C736.424 546.108 736.897 546.193 737.444 546.193C737.904 546.193 738.289 546.136 738.599 546.023C738.909 545.909 739.144 545.751 739.305 545.55C739.465 545.348 739.547 545.118 739.553 544.86C739.547 544.617 739.467 544.405 739.312 544.224C739.162 544.038 738.914 543.873 738.568 543.728C738.222 543.579 737.754 543.439 737.165 543.31L735.584 542.969C734.179 542.664 733.071 542.155 732.259 541.442C731.453 540.724 731.053 539.745 731.058 538.505C731.053 537.497 731.322 536.616 731.864 535.862C732.412 535.102 733.169 534.511 734.135 534.087C735.106 533.663 736.22 533.451 737.475 533.451C738.757 533.451 739.865 533.666 740.8 534.095C741.736 534.523 742.456 535.128 742.963 535.908C743.474 536.683 743.733 537.59 743.738 538.629H739.615ZM754.324 549.541V533.668H758.633V539.869H764.338V533.668H768.647V549.541H764.338V543.341H758.633V549.541H754.324ZM783.732 533.668V549.541H779.423V533.668H783.732ZM796.892 549.789C796.292 549.789 795.778 549.58 795.349 549.161C794.926 548.738 794.717 548.224 794.722 547.619C794.717 547.03 794.926 546.526 795.349 546.108C795.778 545.689 796.292 545.48 796.892 545.48C797.46 545.48 797.961 545.689 798.395 546.108C798.835 546.526 799.057 547.03 799.062 547.619C799.057 548.022 798.951 548.389 798.744 548.72C798.543 549.045 798.279 549.306 797.954 549.503C797.628 549.694 797.274 549.789 796.892 549.789ZM824.874 539.621H820.503C820.472 539.259 820.389 538.931 820.255 538.636C820.126 538.342 819.945 538.089 819.712 537.877C819.485 537.66 819.208 537.494 818.883 537.381C818.557 537.262 818.188 537.203 817.775 537.203C817.051 537.203 816.439 537.378 815.938 537.73C815.442 538.081 815.065 538.585 814.806 539.241C814.553 539.897 814.426 540.685 814.426 541.605C814.426 542.576 814.556 543.39 814.814 544.046C815.077 544.697 815.457 545.188 815.953 545.519C816.449 545.844 817.046 546.007 817.744 546.007C818.141 546.007 818.498 545.958 818.813 545.86C819.128 545.756 819.402 545.609 819.635 545.418C819.867 545.227 820.056 544.997 820.2 544.728C820.35 544.454 820.451 544.147 820.503 543.806L824.874 543.837C824.822 544.509 824.634 545.193 824.308 545.891C823.983 546.583 823.52 547.224 822.921 547.813C822.327 548.397 821.59 548.867 820.712 549.223C819.834 549.58 818.813 549.758 817.651 549.758C816.194 549.758 814.886 549.446 813.729 548.82C812.577 548.195 811.665 547.276 810.993 546.061C810.326 544.847 809.993 543.362 809.993 541.605C809.993 539.838 810.334 538.35 811.016 537.141C811.698 535.926 812.618 535.009 813.775 534.389C814.933 533.764 816.225 533.451 817.651 533.451C818.653 533.451 819.575 533.588 820.418 533.862C821.26 534.136 821.999 534.536 822.634 535.063C823.27 535.585 823.781 536.229 824.169 536.993C824.556 537.758 824.791 538.634 824.874 539.621ZM850.936 541.605C850.936 543.372 850.592 544.863 849.905 546.077C849.218 547.286 848.291 548.203 847.123 548.828C845.955 549.448 844.653 549.758 843.217 549.758C841.77 549.758 840.463 549.446 839.295 548.82C838.132 548.19 837.207 547.27 836.52 546.061C835.838 544.847 835.497 543.362 835.497 541.605C835.497 539.838 835.838 538.35 836.52 537.141C837.207 535.926 838.132 535.009 839.295 534.389C840.463 533.764 841.77 533.451 843.217 533.451C844.653 533.451 845.955 533.764 847.123 534.389C848.291 535.009 849.218 535.926 849.905 537.141C850.592 538.35 850.936 539.838 850.936 541.605ZM846.503 541.605C846.503 540.654 846.376 539.853 846.123 539.202C845.875 538.546 845.506 538.05 845.015 537.714C844.529 537.373 843.93 537.203 843.217 537.203C842.504 537.203 841.902 537.373 841.411 537.714C840.925 538.05 840.556 538.546 840.302 539.202C840.054 539.853 839.93 540.654 839.93 541.605C839.93 542.556 840.054 543.359 840.302 544.015C840.556 544.666 840.925 545.162 841.411 545.503C841.902 545.839 842.504 546.007 843.217 546.007C843.93 546.007 844.529 545.839 845.015 545.503C845.506 545.162 845.875 544.666 846.123 544.015C846.376 543.359 846.503 542.556 846.503 541.605ZM861.66 533.668H867.023L870.712 542.659H870.898L874.588 533.668H879.951V549.541H875.735V540.365H875.611L872.077 549.417H869.534L866 540.303H865.876V549.541H861.66V533.668Z" fill="#ECECEC"/>
</svg>
