<svg width="22" height="22" viewBox="0 0 22 22" fill="none" xmlns="http://www.w3.org/2000/svg">
<path fill-rule="evenodd" clip-rule="evenodd" d="M12.3473 5.01405C12.4762 4.8853 12.651 4.81299 12.8332 4.81299C13.0154 4.81299 13.1901 4.8853 13.319 5.01405L18.819 10.5141C18.9478 10.643 19.0201 10.8177 19.0201 10.9999C19.0201 11.1821 18.9478 11.3568 18.819 11.4857L13.319 16.9857C13.2561 17.0533 13.1802 17.1074 13.0958 17.145C13.0115 17.1826 12.9205 17.2028 12.8281 17.2044C12.7358 17.2061 12.6441 17.1891 12.5585 17.1545C12.4729 17.1199 12.3952 17.0685 12.3299 17.0032C12.2646 16.9379 12.2131 16.8601 12.1786 16.7745C12.144 16.6889 12.127 16.5972 12.1286 16.5049C12.1303 16.4126 12.1505 16.3216 12.188 16.2372C12.2256 16.1529 12.2798 16.077 12.3473 16.014L16.674 11.6874H3.6665C3.48417 11.6874 3.3093 11.615 3.18037 11.486C3.05144 11.3571 2.979 11.1822 2.979 10.9999C2.979 10.8175 3.05144 10.6427 3.18037 10.5137C3.3093 10.3848 3.48417 10.3124 3.6665 10.3124H16.674L12.3473 5.98572C12.2186 5.85681 12.1463 5.68207 12.1463 5.49988C12.1463 5.3177 12.2186 5.14296 12.3473 5.01405Z" fill="black"/>
</svg>
